#!OML:ASF F:\VICON\USERDATA\INSTALL\Justin_Nancy\Justin_Nancy.ASF
:FULLY-SPECIFIED
:DEGREES
146
root 0.724619 17.4618 1.6483 -2.71424 -3.51778 -3.15683
lowerback 6.25921 0.550091 2.54716
upperback 0.509103 1.01748 3.43679
thorax -3.00503 0.49311 2.02944
lowerneck -15.3882 -3.147 -9.46248
upperneck 23.0924 -3.1499 4.79114
head 10.1394 -1.7357 2.86408
rclavicle -1.77664e-015 -5.56597e-015
rhumerus -31.3013 -13.7287 -77.7452
rradius 30.9224
rwrist 4.72454
rhand -14.6181 10.8782
rfingers 7.12502
rthumb 11.5331 -18.7845
lclavicle -1.77664e-015 -5.56597e-015
lhumerus -34.1738 4.97372 87.001
lradius 27.1867
lwrist -7.98462
lhand -12.8881 26.8608
lfingers 7.12502
lthumb 13.2011 56.4228
rfemur -5.11652 6.19782 28.5928
rtibia 26.8283
rfoot -13.0404 -4.55861
rtoes -1.91917
lfemur -26.2402 1.99602 -18.0127
ltibia 63.9655
lfoot -5.44607 1.41979
ltoes -10.8961
147
root 0.717974 17.438 1.86856 -2.7342 -3.4952 -3.55384
lowerback 6.34127 0.515753 2.97522
upperback 0.436482 1.01165 3.50682
thorax -3.12024 0.483949 1.86184
lowerneck -15.0828 -3.18106 -9.57386
upperneck 22.9628 -3.19705 4.79026
head 10.0412 -1.76906 2.87584
rclavicle 1.9133e-015 8.74653e-015
rhumerus -30.6572 -12.8248 -78.0835
rradius 31.5352
rwrist 4.37098
rhand -14.7463 10.8867
rfingers 7.12502
rthumb 11.4094 -18.7829
lclavicle 1.9133e-015 8.74653e-015
lhumerus -34.632 5.08046 86.9923
lradius 26.7838
lwrist -8.57735
lhand -12.0119 26.9578
lfingers 7.12502
lthumb 14.0455 56.4632
rfemur -4.02145 6.13283 29.1569
rtibia 26.4451
rfoot -13.547 -4.8468
rtoes -2.13939
lfemur -27.0431 2.02632 -17.7013
ltibia 62.4874
lfoot -6.00376 2.40927
ltoes -11.5815
148
root 0.712249 17.4163 2.10065 -2.77771 -3.76913 -3.95836
lowerback 6.23002 0.648772 3.477
upperback 0.522393 1.21337 3.51851
thorax -2.96125 0.57918 1.57625
lowerneck -15.1707 -3.24732 -9.52113
upperneck 23.058 -3.3046 4.81969
head 10.1001 -1.81102 2.86387
rclavicle -1.97667e-014 7.95139e-015
rhumerus -29.9055 -12.1997 -78.3535
rradius 31.9687
rwrist 4.21634
rhand -15.0288 11.2433
rfingers 7.12502
rthumb 11.137 -18.4412
lclavicle -1.97667e-014 7.95139e-015
lhumerus -34.8912 5.04306 86.9724
lradius 26.2257
lwrist -9.09255
lhand -11.507 26.8967
lfingers 7.12502
lthumb 14.532 56.3677
rfemur -2.83254 6.30954 29.7205
rtibia 26.0334
rfoot -14.0746 -5.05893
rtoes -1.47488
lfemur -27.6566 2.36006 -17.3509
ltibia 60.8177
lfoot -6.89824 3.2259
ltoes -12.2898
149
root 0.708185 17.3944 2.32778 -2.66484 -4.19303 -4.27798
lowerback 5.97258 0.829957 3.88953
upperback 0.702552 1.45672 3.53817
thorax -2.62159 0.700045 1.34966
lowerneck -15.4682 -3.3228 -9.48686
upperneck 23.0246 -3.38736 4.81798
head 10.151 -1.84193 2.8438
rclavicle -7.00716e-015 2.38542e-015
rhumerus -29.0711 -11.1259 -78.6983
rradius 32.6523
rwrist 3.68892
rhand -15.1691 12.1046
rfingers 7.12502
rthumb 11.0017 -17.5871
lclavicle -7.00716e-015 2.38542e-015
lhumerus -34.8483 5.21848 86.9537
lradius 25.623
lwrist -9.57542
lhand -11.1746 27.4647
lfingers 7.12502
lthumb 14.8522 56.9124
rfemur -1.83897 6.67337 30.1739
rtibia 25.6723
rfoot -14.5813 -5.27218
rtoes -1.24237
lfemur -28.4191 2.82862 -17.1112
ltibia 59.0106
lfoot -7.62544 4.01328
ltoes -11.9165
150
root 0.697838 17.3691 2.5421 -2.57683 -4.5504 -4.65668
lowerback 6.25883 0.967225 4.23657
upperback 0.598292 1.68942 3.60394
thorax -2.88113 0.807934 1.19952
lowerneck -15.3451 -3.3508 -9.47448
upperneck 22.8741 -3.41899 4.74058
head 10.0748 -1.86349 2.80838
rclavicle -1.32937e-014 -2.22639e-014
rhumerus -28.5999 -9.9063 -78.9646
rradius 33.4371
rwrist 3.02906
rhand -15.1443 12.5046
rfingers 7.12502
rthumb 11.0256 -17.1858
lclavicle -1.32937e-014 -2.22639e-014
lhumerus -35.4246 5.27882 86.9254
lradius 25.4251
lwrist -9.9135
lhand -11.2623 26.9228
lfingers 7.12502
lthumb 14.7678 56.3767
rfemur -0.868509 7.06519 30.7553
rtibia 25.2781
rfoot -14.923 -5.52898
rtoes -1.02296
lfemur -29.1698 3.30436 -16.7516
ltibia 57.0361
lfoot -8.24267 4.68606
ltoes -11.4681
151
root 0.68337 17.3395 2.75225 -2.5395 -4.83372 -4.91192
lowerback 6.57641 1.07583 4.35903
upperback 0.588862 1.86767 3.67766
thorax -3.06605 0.892501 1.18608
lowerneck -15.5263 -3.34462 -9.59981
upperneck 22.8261 -3.37755 4.82386
head 10.0928 -1.84264 2.86289
rclavicle -3.64024e-015 6.36111e-015
rhumerus -27.847 -8.75775 -79.218
rradius 34.2662
rwrist 2.31856
rhand -15.2906 12.3077
rfingers 7.12502
rthumb 10.8844 -17.3902
lclavicle -3.64024e-015 6.36111e-015
lhumerus -35.9415 5.30662 86.9927
lradius 25.4085
lwrist -10.0939
lhand -11.54 26.1185
lfingers 7.12502
lthumb 14.5002 55.5918
rfemur 0.149401 7.56003 31.2852
rtibia 24.8743
rfoot -15.2175 -6.10881
rtoes -1.52225
lfemur -29.7982 3.6746 -16.5003
ltibia 54.8698
lfoot -8.70639 5.28198
ltoes -11.5741
152
root 0.673963 17.3095 2.96723 -2.41491 -4.93028 -5.23911
lowerback 6.57703 1.13638 4.61763
upperback 0.7128 1.9616 3.75053
thorax -2.93101 0.939148 1.1102
lowerneck -16.002 -3.41021 -9.67163
upperneck 22.7687 -3.41534 4.8902
head 10.1685 -1.85162 2.88947
rclavicle -1.7667e-014 -3.26007e-014
rhumerus -26.9191 -7.67882 -79.4464
rradius 35.0782
rwrist 1.60196
rhand -15.738 12.5066
rfingers 7.12502
rthumb 10.4529 -17.2135
lclavicle -1.7667e-014 -3.26007e-014
lhumerus -36.0135 5.32442 87.0811
lradius 25.1178
lwrist -10.221
lhand -11.3802 26.4839
lfingers 7.12502
lthumb 14.6542 55.946
rfemur 1.09859 7.80697 31.8221
rtibia 24.4236
rfoot -15.5835 -6.542
rtoes -1.97168
lfemur -30.4049 3.69974 -16.1785
ltibia 52.515
lfoot -8.98087 5.82909
ltoes -10.8377
153
root 0.669808 17.281 3.1875 -2.1641 -4.98827 -5.60767
lowerback 6.38254 1.19999 4.98851
upperback 0.715834 2.05807 3.78341
thorax -2.80597 0.984927 0.933869
lowerneck -15.9962 -3.3874 -9.51743
upperneck 22.5001 -3.41314 4.86894
head 10.0665 -1.83552 2.8527
rclavicle 2.95692e-015 6.36111e-015
rhumerus -26.1971 -6.82348 -79.5692
rradius 35.8197
rwrist 1.05472
rhand -15.7334 12.811
rfingers 7.12502
rthumb 10.4574 -16.9089
lclavicle 2.95692e-015 6.36111e-015
lhumerus -36.2402 5.41927 87.0613
lradius 24.8162
lwrist -10.4374
lhand -11.315 27.1283
lfingers 7.12502
lthumb 14.717 56.5859
rfemur 1.97087 7.85508 32.2975
rtibia 23.8911
rfoot -15.9576 -6.78655
rtoes -2.87751
lfemur -30.9594 3.51244 -15.8355
ltibia 49.9465
lfoot -8.79749 6.52808
ltoes -7.61992
154
root 0.662868 17.2522 3.40704 -1.91028 -5.00859 -5.69712
lowerback 6.1795 1.24989 5.03384
upperback 0.616419 2.11753 3.77373
thorax -2.79215 1.01334 0.897404
lowerneck -15.5958 -3.28826 -9.36505
upperneck 22.1571 -3.32292 4.77383
head 9.85588 -1.79143 2.80372
rclavicle 1.71079e-014 5.56597e-015
rhumerus -25.5993 -5.90841 -79.6337
rradius 36.5919
rwrist 0.604101
rhand -15.339 12.9799
rfingers 7.12502
rthumb 10.8378 -16.7205
lclavicle 1.71079e-014 5.56597e-015
lhumerus -36.863 5.7086 86.9554
lradius 24.8423
lwrist -10.6684
lhand -11.4507 26.7224
lfingers 7.12502
lthumb 14.5863 56.1895
rfemur 2.91007 7.88013 32.4805
rtibia 23.2127
rfoot -16.1684 -7.09456
rtoes -3.809
lfemur -31.381 3.21487 -15.7548
ltibia 47.1819
lfoot -8.62459 7.29148
ltoes -5.97663
155
root 0.656217 17.2289 3.63061 -1.69708 -5.05521 -5.59711
lowerback 5.97765 1.30111 4.88882
upperback 0.615292 2.1591 3.73177
thorax -2.68292 1.03753 0.936155
lowerneck -15.5482 -3.29781 -9.24891
upperneck 21.9287 -3.31379 4.5632
head 9.75993 -1.79828 2.70823
rclavicle -9.79014e-015 -4.77083e-015
rhumerus -24.7752 -5.03674 -79.6643
rradius 37.1934
rwrist 0.343714
rhand -15.1635 13.1193
rfingers 7.12502
rthumb 11.0071 -16.5721
lclavicle -9.79014e-015 -4.77083e-015
lhumerus -37.2114 6.21223 86.8033
lradius 24.7544
lwrist -11.0927
lhand -11.3483 26.6843
lfingers 7.12502
lthumb 14.685 56.1443
rfemur 3.96094 8.04396 32.4828
rtibia 22.4577
rfoot -16.4296 -7.50141
rtoes -4.30884
lfemur -31.6544 2.8047 -15.8236
ltibia 44.2107
lfoot -8.51485 7.96017
ltoes -8.98316
156
root 0.65645 17.2128 3.85914 -1.44599 -5.26382 -5.6727
lowerback 5.9138 1.37911 5.02352
upperback 0.552354 2.26891 3.68043
thorax -2.70303 1.08932 0.800439
lowerneck -15.6407 -3.33402 -9.15948
upperneck 21.8347 -3.36358 4.50991
head 9.74513 -1.81743 2.66599
rclavicle 7.85199e-015 -5.56597e-015
rhumerus -24.056 -4.1796 -79.7035
rradius 37.6855
rwrist 0.135041
rhand -15.3269 13.23
rfingers 7.12502
rthumb 10.8495 -16.4698
lclavicle 7.85199e-015 -5.56597e-015
lhumerus -37.3826 6.7647 86.544
lradius 24.2229
lwrist -11.4837
lhand -10.8937 27.4391
lfingers 7.12502
lthumb 15.1229 56.8666
rfemur 5.01042 7.9488 32.5298
rtibia 21.6175
rfoot -16.848 -7.34747
rtoes -4.69168
lfemur -31.8811 2.31742 -15.609
ltibia 41.1203
lfoot -8.33724 8.59929
ltoes -10.713
157
root 0.653586 17.2014 4.09055 -1.10848 -5.25136 -5.58468
lowerback 5.69848 1.41332 4.92495
upperback 0.421686 2.29771 3.61673
thorax -2.71815 1.10317 0.791237
lowerneck -15.7558 -3.32956 -9.26884
upperneck 21.9517 -3.35466 4.65285
head 9.81189 -1.80662 2.73665
rclavicle -2.00027e-015 -1.03368e-014
rhumerus -23.576 -3.5044 -79.6731
rradius 38.4203
rwrist -0.0127051
rhand -15.565 13.1553
rfingers 7.12502
rthumb 10.6198 -16.5563
lclavicle -2.00027e-015 -1.03368e-014
lhumerus -37.6211 7.25866 86.3606
lradius 23.616
lwrist -11.5849
lhand -11.1356 28.0655
lfingers 7.12502
lthumb 14.8899 57.5104
rfemur 5.96976 7.72184 32.374
rtibia 20.6739
rfoot -17.1948 -6.86478
rtoes -4.32032
lfemur -32.2298 1.51946 -15.4947
ltibia 37.996
lfoot -8.06594 8.93167
ltoes -10.6893
158
root 0.647377 17.1815 4.32164 -0.81937 -5.18665 -5.65371
lowerback 5.4065 1.39854 4.86516
upperback 0.443396 2.25266 3.6937
thorax -2.53827 1.08536 0.91552
lowerneck -16.0543 -3.31428 -9.39939
upperneck 21.8873 -3.26278 4.64033
head 9.84087 -1.77177 2.7635
rclavicle -9.31803e-015 -2.3059e-014
rhumerus -22.9478 -2.67519 -79.5422
rradius 39.4511
rwrist -0.4857
rhand -15.3982 11.5786
rfingers 7.12502
rthumb 10.7807 -18.1247
lclavicle -9.31803e-015 -2.3059e-014
lhumerus -37.5554 8.05398 86.2073
lradius 22.9383
lwrist -11.7874
lhand -11.537 27.8712
lfingers 7.12502
lthumb 14.5031 57.3443
rfemur 7.00251 7.53762 32.461
rtibia 19.753
rfoot -17.4943 -6.72309
rtoes -4.14125
lfemur -32.539 0.507819 -15.0697
ltibia 34.9262
lfoot -7.82939 9.23763
ltoes -10.5341
